<svg width="40" height="40" viewBox="0 0 40 40" fill="none" xmlns="http://www.w3.org/2000/svg">
  <rect width="40" height="40" rx="8" fill="#1877F2"/>
  <path d="M28 20.0368C28 15.6223 24.4183 12.0737 20 12.0737C15.5817 12.0737 12 15.6223 12 20.0368C12 24.0154 14.8538 27.3024 18.5625 27.9271V22.3398H16.5312V20.0368H18.5625V18.2847C18.5625 16.2902 19.8289 15.1157 21.6576 15.1157C22.5288 15.1157 23.4375 15.2714 23.4375 15.2714V17.2161H22.4318C21.4399 17.2161 21.4375 17.9128 21.4375 18.6284V20.0368H23.3359L22.8926 22.3398H21.4375V27.9271C25.1462 27.3024 28 24.0154 28 20.0368Z" fill="white"/>
</svg>
